<svg viewBox="20546 0 3831 4059" xmlns="http://www.w3.org/2000/svg"  xmlns:xlink="http://www.w3.org/1999/xlink">
<defs>
<rect id="clipRect" x="20546" y="0"  width="100%" height="100%" fill="none" stroke="blue" />
<clipPath id = "clip">
<use xlink:href="#clipRect"/>
</clipPath>
</defs>
<g clip-path="url(#clip)" id="20160707-hKDCS19-133-JAM-0-30-00_scene3">
<!-- <rect x="20546" y = "0" width="100%" height="100%" fill = "none"/> -->
<scale x = "0.219522" y = "0.219522" />
<polyline name="EHDAA2:0028494,ureteric trunk" points="21956.3,1407.86 21956.3,1399.96 21952.6,1395.35 21945.1,1394.25 21942.7,1394.47 21937.7,1396.22 21935,1397.76 21932.6,1399.3 21930.9,1401.05 21928.4,1403.03 21926.3,1405.88 21924.7,1407.42 21920.5,1413.79 21918.6,1417.74 21917.5,1422.57 21916.8,1434.42 21914.8,1448.03 21914.4,1453.74 21914,1470.42 21915.1,1474.37 21916.2,1475.69 21917.9,1478.33 21919.9,1479.42 21922.3,1480.3 21923.6,1479.2 21925.8,1476.57 21927.1,1475.25 21928.4,1473.28 21931.5,1469.11 21936.3,1460.32 21938.8,1453.52 21940.7,1447.59 21942.1,1443.64 21947.3,1431.13 21953.5,1416.42 21953.7,1415.54 21954.8,1412.91 21954.8,1412.69 21956.3,1407.86 " style="stroke-width:1px;stroke:#B3B300;fill:none;stroke-linecap:round;vector-effect:non-scaling-stroke"/>
<polyline name="EHDAA2:0028494,ureteric trunk" points="21800.4,1398.64 21799.3,1397.1 21796.2,1394.03 21793.1,1392.49 21787.8,1391.18 21778,1391.39 21770.5,1392.71 21764.1,1394.91 21760.6,1396.44 21755.3,1399.3 21752.7,1401.27 21749.9,1404.13 21749,1406.32 21749.2,1409.4 21751,1410.93 21752.5,1412.91 21754,1414.01 21756.9,1416.64 21758.7,1418.18 21773.3,1425.64 21778.8,1426.08 21782.8,1426.52 21790,1425.64 21792.2,1425.2 21795.8,1424.98 21799.7,1423.23 21801.4,1422.13 21805.8,1419.71 21805.8,1419.49 21808,1414.01 21807.8,1410.93 21806.9,1408.3 21805.6,1405.88 21804.5,1404.57 21803.7,1402.59 21803,1402.15 21803,1401.93 21802.6,1401.27 21800.4,1398.64 " style="stroke-width:1px;stroke:#B3B300;fill:none;stroke-linecap:round;vector-effect:non-scaling-stroke"/>
<polyline name="EHDAA2:0027681,comma-shaped body" points="21674.6,1560.21 21673.5,1560.43 21672.2,1561.09 21669.5,1562.84 21665.3,1566.79 21663.6,1567.67 21660.5,1568.33 21658.6,1567.23 21654.8,1563.72 21652,1559.11 21650.9,1556.48 21650.4,1549.67 21650.6,1539.57 21652.6,1532.77 21655,1526.62 21657.2,1522.01 21661.4,1517.18 21666.9,1512.79 21668,1512.13 21673.9,1507.74 21677,1505.55 21682.3,1503.57 21686.4,1502.69 21688.8,1502.91 21689.3,1503.13 21700.5,1505.55 21703.6,1505.77 21711.7,1507.96 21717.8,1510.81 21720,1512.13 21725.5,1516.74 21729,1520.47 21734.1,1527.72 21736.3,1534.08 21737.6,1539.35 21738.4,1543.3 21739.1,1543.52 21739.8,1542.21 21739.8,1539.79 21738.7,1536.5 21737.1,1532.55 21736.3,1529.91 21734.9,1524.86 21733.4,1520.91 21731.2,1518.06 21729,1515.42 21727.3,1514.11 21724.6,1511.91 21720.7,1508.84 21716.7,1506.64 21714.1,1505.77 21709.9,1504.67 21706.6,1503.35 21703.1,1502.47 21700,1502.03 21695.2,1500.5 21691.9,1498.52 21689.7,1496.33 21689.5,1494.35 21690.8,1491.5 21692.6,1489.74 21695,1487.33 21698.1,1485.79 21701.8,1484.91 21710.6,1482.72 21721.6,1483.59 21724.4,1483.81 21729.2,1486.23 21734.1,1488.64 21739.8,1492.59 21742,1494.79 21746.1,1498.3 21749.4,1502.25 21754.3,1511.25 21756.9,1516.96 21758,1523.55 21758.2,1529.91 21758.2,1539.35 21757.1,1549.67 21755.8,1552.96 21753.8,1556.48 21751.8,1559.33 21750.5,1560.43 21750.1,1559.99 21748.6,1562.62 21746.3,1565.04 21741.1,1568.55 21736.9,1570.09 21734.1,1570.74 21729.4,1571.84 21723.1,1573.82 21715.4,1574.92 21710.6,1574.92 21703.6,1574.04 21700.7,1573.16 21698.9,1571.62 21695.4,1568.55 21692.6,1566.35 21686,1564.16 21682.3,1562.84 21677.2,1560.43 21677,1560.65 21677,1560.43 21676.1,1560.21 21674.6,1560.21 " style="stroke-width:1px;stroke:#8080C0;fill:none;stroke-linecap:round;vector-effect:non-scaling-stroke"/>
<polyline name="EHDAA2:0027605,ureteric tip" points="21738,1578.21 21735.2,1578.21 21731.2,1578.65 21723.5,1579.31 21712.8,1579.09 21705.7,1577.77 21702.4,1576.67 21700.7,1575.79 21698.1,1574.48 21694.6,1571.18 21691.7,1567.89 21690.8,1567.23 21687.3,1564.38 21682.7,1562.4 21678.7,1561.09 21677.4,1560.43 21674.3,1559.99 21673,1559.77 21670.6,1560.43 21669.3,1561.3 21667.8,1562.84 21667.1,1565.04 21665.1,1567.01 21663.6,1567.67 21662.1,1567.45 21658.8,1565.48 21656.8,1563.5 21655.3,1561.74 21652.8,1558.23 21651.5,1556.69 21650.2,1556.48 21649.6,1557.79 21649.1,1560.87 21649.3,1564.38 21650.4,1568.99 21652,1573.38 21653.3,1575.79 21656.6,1579.96 21660.1,1582.6 21662.9,1585.45 21664,1586.11 21671.3,1591.16 21676.6,1593.79 21683.1,1597.09 21686.9,1599.28 21690.2,1601.04 21692.6,1602.36 21702.4,1608.5 21711.2,1615.09 21716.5,1619.7 21721.3,1624.75 21723.7,1627.16 21726.4,1629.8 21729.9,1633.31 21733.4,1637.48 21736.7,1640.33 21740,1641.87 21741.8,1642.31 21747.7,1642.09 21752.1,1640.77 21754,1639.67 21757.1,1636.6 21760,1630.45 21761.7,1627.16 21763.7,1621.01 21764.8,1615.97 21764.8,1611.14 21763,1607.84 21761.1,1607.18 21753.8,1606.75 21749.4,1605.21 21748.1,1604.33 21745.9,1602.36 21743.7,1599.94 21741.5,1596.65 21739.6,1592.7 21739.1,1590.94 21738.7,1587.43 21739.1,1580.18 21739.1,1579.53 21739.1,1579.31 21738,1578.21 " style="stroke-width:1px;stroke:#A48F02;fill:none;stroke-linecap:round;vector-effect:non-scaling-stroke"/>
<polyline name="EHDAA2:0027678,renal vesicle" points="21766.3,1554.28 21764.1,1555.6 21757.1,1560.43 21749,1567.67 21744.6,1573.16 21742.6,1576.67 21741.1,1581.72 21740.7,1588.31 21741.8,1592.92 21743.3,1596.65 21745,1598.84 21749,1603.01 21751.6,1604.55 21754.7,1605.43 21758.7,1605.87 21762.6,1606.53 21766.3,1605.87 21769.8,1604.11 21775.1,1600.82 21776.9,1599.06 21779.9,1595.77 21784.1,1590.06 21788.1,1585.67 21788.7,1584.13 21789.6,1580.18 21789.6,1576.01 21788.3,1572.94 21785.2,1564.38 21782.4,1559.33 21779.1,1552.52 21779.1,1549.89 21780.2,1547.47 21780.4,1546.6 21776.9,1546.6 21773.6,1548.79 21772.5,1549.89 21770.7,1550.99 21770.1,1551.43 21766.3,1554.28 " style="stroke-width:1px;stroke:#8080FF;fill:none;stroke-linecap:round;vector-effect:non-scaling-stroke"/>
<polyline name="EHDAA2:0027621,cap mesenchyme" points="21651.1,1520.69 21652.2,1516.74 21653.7,1514.11 21655.9,1511.25 21658.3,1507.3 21659.9,1503.35 21659.9,1500.28 21658.3,1499.18 21652.6,1499.18 21646.7,1501.59 21640.8,1504.45 21637.7,1508.18 21634.4,1515.86 21632.9,1521.35 21631.1,1529.91 21630.2,1537.38 21629.6,1547.91 21630.9,1556.69 21632.4,1562.84 21635.5,1570.09 21638.3,1576.89 21641.6,1582.6 21642.3,1583.48 21646.7,1590.72 21648.2,1593.14 21650.6,1596.21 21652,1597.53 21654.2,1600.16 21656.3,1603.67 21657.4,1605.65 21662.3,1608.72 21664.5,1606.09 21667.8,1604.99 21670.6,1604.33 21679.6,1604.55 21682.3,1605.21 21686.4,1605.21 21687.5,1604.77 21687.3,1602.79 21686.2,1601.26 21682.9,1597.96 21674.8,1592.7 21669.7,1590.28 21666,1587.43 21660.5,1583.26 21657.9,1581.06 21655.3,1578.65 21650,1571.84 21648.4,1568.33 21647.1,1563.06 21647.3,1559.55 21647.8,1557.35 21648.7,1553.18 21649.1,1552.3 21649.3,1538.69 21650,1531.45 21650.6,1524.21 21650.9,1522.45 21650.9,1522.67 21650.6,1522.67 21651.1,1520.69 " style="stroke-width:1px;stroke:#8000FF;fill:none;stroke-linecap:round;vector-effect:non-scaling-stroke"/>
<polyline name="EHDAA2:0027621,cap mesenchyme" points="21765.3,1607.4 21766.9,1606.53 21772.8,1602.36 21774.3,1601.48 21777.2,1599.28 21779.2,1597.75 21779.8,1597.53 21784.4,1593.14 21787.7,1589.62 21789.5,1588.74 21791,1589.18 21791.9,1591.38 21793.9,1597.75 21794.5,1606.97 21795,1611.79 21794.1,1615.97 21790.8,1622.33 21788.8,1625.84 21787.9,1626.94 21782,1636.16 21778.5,1643.84 21772.6,1653.94 21771.1,1655.92 21770.4,1657.02 21768.8,1658.77 21764.3,1663.6 21760.5,1665.36 21753.5,1665.36 21750.8,1664.7 21746.7,1663.82 21743.4,1662.28 21738.1,1658.77 21736.8,1657.46 21734.4,1656.36 21729.8,1654.82 21726.9,1653.06 21723.6,1650.21 21721.4,1646.48 21719.7,1642.75 21718.4,1641.43 21717.3,1640.11 21714.6,1638.14 21712.9,1635.72 21710.7,1631.99 21708.9,1629.8 21707.6,1628.26 21706.5,1626.06 21705.8,1623.87 21706.1,1619.92 21707.2,1618.6 21708.5,1617.94 21713.5,1618.82 21715.3,1619.92 21717.5,1621.89 21720.6,1624.53 21725.2,1630.23 21728.9,1633.75 21733.7,1638.58 21738.6,1642.09 21742.1,1643.41 21748.2,1643.41 21748.9,1642.97 21755,1640.11 21757.9,1637.48 21759.6,1635.5 21762.5,1630.89 21764,1625.62 21765.8,1618.16 21766.2,1613.99 21766,1611.14 21765.6,1608.5 21765.8,1606.97 21765.6,1607.4 21765.3,1607.4 " style="stroke-width:1px;stroke:#8000FF;fill:none;stroke-linecap:round;vector-effect:non-scaling-stroke"/>
<polyline name="EHDAA2:0027678,renal vesicle" points="21957.6,1626.72 21955.4,1618.6 21953.5,1614.65 21950.4,1611.79 21949.5,1607.62 21948.4,1605.87 21947.1,1605.21 21945.1,1605.65 21943.6,1606.31 21941.4,1606.97 21938.5,1608.72 21936.3,1610.92 21934.6,1615.31 21932,1624.31 21928.7,1631.55 21926.3,1637.92 21924.3,1644.72 21923,1653.72 21923.2,1658.99 21924.5,1665.36 21927.3,1670.19 21930.4,1671.72 21935.3,1672.6 21938.3,1672.16 21940.5,1671.07 21944.5,1669.75 21947.1,1668.21 21949.5,1666.89 21951.7,1665.36 21953.9,1663.16 21955.4,1660.53 21959,1650.87 21960.7,1645.16 21960.7,1640.11 21959.8,1635.28 21959,1632.65 21958.7,1631.55 21958.5,1631.33 21958.7,1631.33 21957.6,1626.72 " style="stroke-width:1px;stroke:#8080FF;fill:none;stroke-linecap:round;vector-effect:non-scaling-stroke"/>
<polyline name="EHDAA2:0028494,ureteric trunk" points="21934.8,1592.7 21932.4,1584.79 21930.4,1581.72 21928,1579.31 21926.5,1578.65 21924.3,1578.43 21921.9,1578.43 21919.9,1580.4 21919,1583.92 21918.3,1591.82 21917.9,1597.53 21915.1,1608.72 21912.4,1618.16 21910.4,1625.84 21907.6,1642.75 21906.3,1648.45 21905.8,1652.41 21906.1,1657.46 21907.2,1660.97 21908.3,1661.85 21909.6,1662.07 21912,1661.41 21915.5,1659.65 21918.1,1658.77 21920.3,1654.82 21921.2,1651.31 21922.3,1645.82 21924.1,1641.43 21927.1,1635.06 21929.1,1627.16 21930.6,1619.92 21931.3,1617.28 21933.7,1609.38 21935.5,1603.01 21935.9,1600.38 21936.3,1597.75 21936.1,1597.09 21935.7,1596.43 21935.7,1596.21 21934.8,1592.7 " style="stroke-width:1px;stroke:#B3B300;fill:none;stroke-linecap:round;vector-effect:non-scaling-stroke"/>
<polyline name="EHDAA2:0027605,ureteric tip" points="21986.2,1677.21 21982.7,1675.46 21978.7,1675.68 21975.6,1677.21 21971.9,1680.51 21970.6,1683.14 21970.2,1686.21 21970.8,1689.73 21973,1693.46 21975,1695.87 21977,1696.75 21981.3,1696.75 21984.9,1694.99 21987.7,1692.58 21989,1690.82 21989.7,1688.85 21990.3,1684.24 21989.9,1682.26 21989.3,1681.16 21988.8,1680.07 21988.6,1679.63 21986.2,1677.21 " style="stroke-width:1px;stroke:#A48F02;fill:none;stroke-linecap:round;vector-effect:non-scaling-stroke"/>
<polyline name="EHDAA2:0027621,cap mesenchyme" points="21960.9,1632.65 21959.4,1626.5 21959.6,1620.58 21960.7,1617.28 21962,1615.53 21966.9,1612.89 21972.1,1611.14 21973.4,1608.5 21974.3,1605.65 21976.5,1602.57 21978.9,1600.82 21980.7,1601.04 21986.6,1604.55 21988.6,1606.53 21990.3,1609.82 21992.1,1617.5 21993.6,1623.21 21995,1625.84 22000,1635.94 22004,1645.82 22004.4,1646.92 22004.6,1648.02 22005.1,1648.89 22009.7,1663.82 22011,1669.53 22012.7,1684.02 22012.5,1689.94 22010.1,1699.82 22006.6,1708.16 22004,1711.46 22000.9,1714.31 21994.5,1718.26 21989.5,1720.46 21982.7,1722.43 21976.3,1722.43 21969.1,1721.34 21964.2,1719.58 21959,1717.38 21952.8,1714.31 21946.2,1711.68 21940.5,1709.04 21935.3,1708.82 21933.5,1707.29 21932.6,1705.53 21931.7,1696.53 21932,1692.14 21933.3,1685.99 21935,1681.82 21937,1678.31 21940.5,1675.46 21944,1672.38 21950.4,1669.09 21953.7,1666.24 21958.5,1661.63 21960.3,1658.11 21961.6,1654.16 21962.9,1647.36 21962.9,1641.87 21962.5,1639.23 21962,1637.26 21962,1636.38 21961.8,1636.6 21962,1636.38 21961.8,1636.6 21961.8,1636.38 21961.6,1635.94 21961.4,1635.72 21961.6,1635.28 21961.4,1635.06 21961.8,1633.75 21961.8,1633.53 21960.9,1632.65 " style="stroke-width:1px;stroke:#8000FF;fill:none;stroke-linecap:round;vector-effect:non-scaling-stroke"/>
<polyline name="EHDAA2:0027621,cap mesenchyme" points="21894,1641.43 21890,1642.75 21886.7,1643.19 21879.9,1642.75 21877.1,1643.84 21871.2,1648.45 21868.7,1649.11 21867,1648.24 21866.1,1647.36 21863.3,1646.26 21860.4,1646.26 21858,1647.36 21857.3,1648.45 21855.6,1650.87 21854.9,1655.26 21854.9,1662.07 21856,1667.33 21860.4,1682.26 21862.8,1687.97 21865.4,1691.48 21869.2,1695.87 21872.9,1699.16 21881.3,1706.19 21887,1708.6 21890.7,1709.92 21893.5,1711.02 21901.2,1711.46 21904.3,1710.8 21908,1709.48 21911.8,1707.07 21913.3,1705.09 21915.7,1698.73 21915.7,1694.77 21912.4,1688.63 21903.4,1679.19 21898.6,1674.8 21897.5,1674.14 21891.6,1669.75 21891.1,1668.43 21892,1667.55 21894.9,1667.11 21896.8,1666.68 21900.1,1667.11 21902.3,1665.36 21903.2,1663.6 21904.1,1658.99 21904.7,1654.6 21904.5,1649.33 21903.9,1646.92 21903,1645.16 21903,1640.33 21903,1635.94 21902.1,1635.5 21900.6,1636.38 21899,1637.7 21898.4,1637.92 21897.3,1638.8 21897.1,1638.8 21894,1641.43 " style="stroke-width:1px;stroke:#8000FF;fill:none;stroke-linecap:round;vector-effect:non-scaling-stroke"/>
<polyline name="EHDAA2:0028494,ureteric trunk" points="22055.3,1371.64 22050.9,1369 22035.1,1363.3 22027.7,1363.74 22023.7,1365.49 22020.2,1368.56 22018.4,1372.08 22017.6,1379.98 22021.1,1390.08 22027.2,1401.49 22030.8,1407.64 22038.7,1415.98 22043,1418.18 22051.4,1418.18 22056.2,1415.98 22063.2,1409.83 22067.2,1402.81 22068.9,1395.79 22068.5,1386.13 22066.3,1380.86 22063.2,1376.91 22059.7,1374.27 22059.3,1373.83 22055.3,1371.64 " style="stroke-width:1px;stroke:#B3B300;fill:none;stroke-linecap:round;vector-effect:non-scaling-stroke"/>
<polyline name="EHDAA2:0028494,ureteric trunk" points="22164.7,1413.35 22160.3,1406.32 22158.1,1405.01 22153.7,1406.32 22151.9,1411.59 22152.4,1416.42 22153.7,1419.93 22157.2,1434.86 22159.4,1441.45 22162,1444.52 22166.8,1447.59 22171.2,1446.28 22174.3,1441.01 22174.3,1430.03 22169.5,1419.93 22168.2,1418.62 22167.3,1416.86 22167.3,1416.42 22164.7,1413.35 " style="stroke-width:1px;stroke:#B3B300;fill:none;stroke-linecap:round;vector-effect:non-scaling-stroke"/>
<polyline name="EHDAA2:0028494,ureteric trunk" points="22137.9,1368.56 22134.8,1368.13 22130.8,1366.81 22126.5,1368.13 22126,1371.64 22137,1383.93 22143.1,1387.88 22146.7,1387.44 22148,1386.13 22148.8,1382.61 22148.4,1377.78 22145.8,1373.83 22144.9,1372.95 22143.1,1370.76 22142.3,1370.32 22137.9,1368.56 " style="stroke-width:1px;stroke:#B3B300;fill:none;stroke-linecap:round;vector-effect:non-scaling-stroke"/>
<polyline name="EHDAA2:0027678,renal vesicle" points="22148,1591.82 22144.7,1589.18 22143.1,1587.87 22140.5,1586.55 22135,1583.48 22131.1,1580.84 22128.4,1579.74 22123.4,1576.89 22118.3,1574.92 22115.5,1573.82 22112.8,1572.28 22110.2,1571.4 22104.7,1571.4 22102.8,1572.5 22101.4,1574.92 22099.5,1579.96 22097.9,1586.55 22097.9,1593.14 22099,1596.87 22100.1,1599.06 22101.7,1599.94 22103.8,1600.16 22104.7,1601.48 22105.2,1607.4 22106.7,1613.55 22108.5,1616.84 22112.8,1621.89 22117.2,1626.06 22124.7,1630.67 22138.5,1637.26 22141.2,1638.14 22144,1638.14 22146.7,1637.04 22150.4,1634.63 22153,1631.33 22153.9,1629.8 22155.9,1627.16 22157.4,1623.21 22158.5,1617.94 22158.5,1613.55 22158.1,1611.79 22156.5,1602.36 22155.2,1599.5 22154.3,1598.4 22152.8,1596.21 22150.8,1594.23 22148,1591.82 " style="stroke-width:1px;stroke:#8080FF;fill:none;stroke-linecap:round;vector-effect:non-scaling-stroke"/>
<polyline name="EHDAA2:0027678,renal vesicle" points="22151.9,1595.33 22151.7,1595.33 22151.9,1595.33 " style="stroke-width:1px;stroke:#8080FF;fill:none;stroke-linecap:round;vector-effect:non-scaling-stroke"/>
<polyline name="EHDAA2:0027605,ureteric tip" points="22096.8,1606.53 22095.5,1601.7 22095.1,1595.33 22094.8,1590.72 22094.2,1590.06 22091.3,1590.28 22089.8,1591.82 22089.1,1593.79 22089.4,1601.48 22089.8,1606.53 22089.6,1611.79 22087.4,1619.04 22084.1,1624.97 22080.6,1628.48 22079.7,1630.02 22076,1633.97 22073.1,1633.97 22070.9,1633.31 22069.2,1632.21 22066.8,1631.77 22064.3,1632.65 22063.2,1634.41 22062.1,1640.11 22058.4,1647.14 22057.1,1651.97 22056.7,1655.26 22056.7,1663.38 22057.8,1669.09 22059.9,1674.36 22063.9,1679.41 22065.4,1680.51 22070,1682.92 22075.5,1684.24 22085.6,1683.36 22088.3,1681.82 22090.7,1679.19 22094,1674.14 22096.2,1670.19 22101.7,1663.6 22103.8,1660.75 22108.9,1651.09 22110.2,1649.55 22112.6,1648.46 22116.6,1648.89 22120.5,1648.89 22124.5,1649.55 22135.2,1652.19 22137.2,1653.06 22140.1,1653.94 22141.4,1654.82 22143.6,1655.48 22146.2,1656.36 22150.4,1656.36 22151.5,1655.92 22151.5,1655.7 22160.9,1655.26 22163.3,1655.26 22168.8,1653.06 22173.4,1648.46 22176.5,1644.06 22177.8,1642.31 22179.4,1638.36 22179.4,1633.75 22177.8,1627.6 22175.8,1622.55 22171.2,1615.75 22168.6,1610.48 22166.4,1607.84 22162.9,1604.55 22160.7,1604.11 22159.6,1604.77 22159.2,1607.84 22158.9,1614.43 22157,1623.21 22153.7,1630.67 22151.5,1633.53 22146.9,1637.48 22143.6,1639.02 22140.5,1639.02 22136.3,1637.04 22132.8,1635.94 22125.4,1632.21 22121,1630.02 22115.5,1626.28 22110.4,1621.67 22108,1618.6 22104.5,1614.87 22101.7,1611.14 22099.5,1608.94 22098.8,1608.72 22096.8,1606.53 " style="stroke-width:1px;stroke:#A48F02;fill:none;stroke-linecap:round;vector-effect:non-scaling-stroke"/>
<polyline name="EHDAA2:0027678,renal vesicle" points="22084.1,1591.38 22083.2,1589.84 22081.9,1588.96 22078.8,1588.09 22074,1588.31 22072.7,1587.87 22071.4,1588.09 22070,1588.75 22062.6,1588.53 22059.9,1588.53 22057.5,1590.06 22055.1,1598.62 22054.7,1605.87 22054.7,1617.94 22055.3,1620.58 22057.3,1625.41 22060.4,1628.26 22064.6,1630.45 22066.8,1630.89 22070,1632.21 22072.7,1633.31 22074.7,1633.09 22076.6,1631.11 22081,1622.77 22085.6,1616.19 22087.8,1611.58 22087.8,1607.4 22086.5,1604.33 22086.5,1602.36 22086.9,1600.38 22086.7,1596.21 22085.8,1593.79 22085.6,1593.57 22085.2,1592.7 22084.1,1591.38 " style="stroke-width:1px;stroke:#8080FF;fill:none;stroke-linecap:round;vector-effect:non-scaling-stroke"/>
<polyline name="EHDAA2:0027621,cap mesenchyme" points="22075.8,1583.26 22076.8,1582.6 22079,1579.74 22080.4,1577.33 22081,1574.04 22080.4,1569.65 22079.7,1568.11 22075.1,1563.72 22072,1562.4 22067.4,1562.4 22058.6,1564.6 22054,1565.91 22050.1,1567.01 22048.3,1567.89 22046.3,1570.31 22044.8,1574.7 22042.6,1582.6 22038,1590.94 22033.8,1601.04 22029.4,1613.77 22028.1,1620.36 22027.2,1628.7 22028.1,1634.19 22029.2,1639.89 22030.8,1652.19 22030.5,1658.33 22029.7,1664.48 22029.7,1674.58 22030.8,1679.41 22032.5,1683.36 22033.8,1685.55 22035.8,1690.82 22040,1696.97 22045.4,1701.36 22051.4,1703.77 22059.9,1706.41 22065.2,1707.29 22067.2,1707.07 22085.4,1703.55 22094,1703.34 22099.2,1700.92 22104.7,1697.41 22112.4,1696.31 22113.7,1696.31 22117.5,1694.34 22119.2,1692.58 22120.3,1691.04 22123.4,1688.63 22124.9,1687.53 22125.6,1686.21 22123.8,1683.8 22120.1,1680.72 22114.2,1677.21 22108.7,1672.16 22106.7,1668.87 22106.3,1667.33 22104.9,1666.02 22102.3,1666.02 22099.7,1667.55 22096.6,1671.29 22094.8,1675.02 22089.4,1681.38 22086.1,1684.02 22083.2,1685.12 22077.7,1685.99 22073.6,1685.55 22069.8,1684.02 22066.3,1682.26 22061,1678.31 22058.2,1674.58 22055.3,1665.14 22054.9,1655.7 22056.2,1649.77 22058.2,1644.28 22059.5,1640.99 22061.3,1638.36 22062.6,1633.75 22061.7,1630.23 22060.4,1628.48 22056.4,1624.53 22054.4,1621.01 22053.4,1615.75 22052.7,1609.6 22053.1,1603.23 22054,1598.4 22055.3,1592.92 22056.4,1590.5 22058.2,1588.31 22060.4,1587.43 22063.2,1586.77 22063.4,1586.77 22071.1,1585.45 22073.3,1584.35 22073.8,1584.14 22075.8,1583.26 " style="stroke-width:1px;stroke:#8000FF;fill:none;stroke-linecap:round;vector-effect:non-scaling-stroke"/>
<polyline name="EHDAA2:0027621,cap mesenchyme" points="22150.6,1657.02 22148.6,1656.58 22141.6,1658.11 22137.7,1659.87 22136.1,1662.07 22136.3,1665.36 22137.2,1666.46 22142.5,1669.53 22145.1,1672.82 22145.8,1672.82 22146,1673.48 22147.1,1674.36 22154.6,1676.33 22160.5,1676.33 22166.2,1674.8 22173.4,1672.6 22178.5,1671.94 22183.3,1669.97 22194.7,1662.07 22203.3,1655.92 22205.3,1652.63 22206.1,1651.31 22207.5,1646.92 22207.2,1642.75 22206.4,1637.92 22205.9,1629.36 22202.4,1617.94 22198.2,1611.58 22196.7,1609.82 22194.5,1605.43 22191,1595.77 22185.1,1586.77 22181.8,1583.04 22174.3,1576.89 22173,1575.35 22171.5,1574.26 22165.8,1568.55 22162.9,1565.7 22158.7,1562.18 22151.5,1558.67 22147.1,1557.35 22141.4,1556.04 22137.7,1554.5 22133.3,1552.3 22128.4,1550.77 22125.8,1549.67 22123.2,1549.23 22121.4,1549.67 22120.5,1550.55 22120.5,1552.74 22122.3,1556.04 22123.2,1559.77 22123.2,1563.28 22121.8,1567.89 22122.1,1570.09 22126.2,1576.45 22128.7,1577.77 22130.4,1578.43 22133.9,1581.72 22136.1,1582.82 22145.8,1586.55 22149.3,1590.06 22154.8,1594.89 22157,1597.09 22166.4,1603.67 22168.2,1605.65 22171.7,1613.77 22172.3,1615.53 22172.8,1616.19 22177.4,1623.65 22178.9,1627.6 22180.2,1635.94 22180,1638.58 22177.6,1644.28 22176.1,1647.14 22174.1,1649.99 22167.1,1655.04 22159.2,1657.24 22157.2,1657.02 22155.4,1656.8 22150.6,1657.02 " style="stroke-width:1px;stroke:#8000FF;fill:none;stroke-linecap:round;vector-effect:non-scaling-stroke"/>
<polyline name="EHDAA2:0027678,renal vesicle" points="22295.3,1523.55 22284.5,1519.38 22283.4,1518.94 22279,1517.62 22272,1517.62 22265.8,1519.82 22258.6,1523.99 22254.2,1527.94 22252.7,1530.35 22252.2,1534.96 22253.1,1539.57 22254.7,1541.77 22257.5,1543.96 22260.2,1545.5 22263.4,1546.38 22267.2,1547.04 22271.3,1549.23 22272.9,1550.33 22276.4,1552.08 22282.8,1555.82 22287.8,1557.13 22293.9,1558.01 22299.7,1557.13 22304.9,1555.6 22313.7,1551.43 22314.4,1550.33 22314.4,1546.6 22313.1,1542.65 22312.2,1541.11 22307.3,1535.4 22304.1,1529.91 22301.8,1527.72 22300.3,1526.84 22299.2,1526.4 22299.2,1525.74 22299.2,1525.3 22299,1525.3 22295.3,1523.55 " style="stroke-width:1px;stroke:#8080FF;fill:none;stroke-linecap:round;vector-effect:non-scaling-stroke"/>
<polyline name="EHDAA2:0027605,ureteric tip" points="22250.9,1542.21 22249.4,1541.33 22246.8,1541.55 22244.8,1543.74 22243,1545.94 22236.9,1549.01 22228.8,1550.55 22226.3,1550.33 22223.9,1549.23 22220.2,1549.23 22218.9,1550.99 22217.1,1554.06 22216.7,1556.69 22218.7,1564.6 22219.5,1569.87 22220.8,1574.26 22223.7,1578.21 22226.8,1581.5 22231.6,1584.14 22239.5,1586.11 22245.9,1586.55 22251.8,1585.89 22259.9,1585.67 22262.6,1585.01 22264.8,1584.79 22269.8,1583.26 22274.6,1582.38 22279.5,1580.84 22286.9,1579.31 22288.3,1578.87 22290.4,1578.21 22292.8,1575.79 22292.8,1572.72 22292.4,1571.4 22293.1,1567.89 22295.3,1560.65 22294.8,1559.55 22292.2,1558.45 22286.9,1557.79 22284.3,1557.35 22279.5,1555.6 22272,1553.18 22268.3,1550.77 22264.1,1549.01 22258.2,1546.16 22256.2,1545.5 22255.5,1544.84 22254.2,1544.18 22250.9,1542.21 " style="stroke-width:1px;stroke:#A48F02;fill:none;stroke-linecap:round;vector-effect:non-scaling-stroke"/>
<polyline name="EHDAA2:0027621,cap mesenchyme" points="22223.5,1580.4 22220.6,1579.09 22218.4,1579.09 22216.7,1579.96 22215.8,1580.4 22209.7,1585.89 22207.2,1586.55 22204.2,1585.67 22198.9,1582.6 22193.8,1575.35 22192.1,1570.09 22191,1568.77 22190.6,1568.99 22189.9,1570.31 22190.1,1575.57 22191,1582.16 22191.2,1590.72 22192.8,1596.65 22201.1,1612.01 22204.4,1615.53 22206.6,1617.28 22208.8,1618.16 22211.2,1618.16 22214.7,1615.31 22218.4,1609.6 22221.1,1608.06 22226.3,1606.53 22229.2,1606.53 22234,1604.77 22239.9,1601.04 22244.1,1597.09 22244.8,1595.11 22244.6,1593.35 22243.7,1591.6 22241.9,1590.06 22238.6,1588.09 22234.2,1586.99 22232.5,1586.11 22229.8,1584.57 22227.9,1582.6 22226.8,1582.6 22226.8,1582.38 22223.5,1580.4 " style="stroke-width:1px;stroke:#8000FF;fill:none;stroke-linecap:round;vector-effect:non-scaling-stroke"/>
<polyline name="EHDAA2:0027621,cap mesenchyme" points="22271.8,1513.23 22271.6,1513.45 22270.7,1512.79 22265,1513.01 22258.8,1513.01 22253.6,1511.25 22250.9,1509.06 22250.3,1506.64 22250.9,1503.57 22253.3,1499.84 22255.3,1498.52 22258.2,1497.42 22262.6,1496.98 22267.8,1496.77 22274,1496.77 22277.5,1497.86 22281.4,1500.5 22283.6,1502.03 22287.4,1503.35 22297.3,1506.64 22312.8,1515.21 22323.2,1521.57 22328.2,1525.96 22332.4,1531.89 22335.4,1540.01 22336.5,1545.5 22336.5,1553.84 22335.4,1559.33 22331.7,1567.45 22326,1575.35 22319.4,1583.04 22313.9,1588.53 22307.8,1595.99 22300.1,1603.45 22294.4,1601.92 22291.1,1600.16 22287.6,1600.38 22286.5,1595.55 22285.8,1591.6 22286.3,1587.65 22288.3,1582.82 22290.2,1579.74 22292.6,1577.55 22293.9,1574.92 22294.4,1568.11 22295.7,1563.28 22296.4,1561.3 22296.4,1561.09 22299.7,1558.67 22305.6,1555.82 22308.4,1555.16 22314.8,1551.43 22318.8,1549.23 22319.4,1548.13 22319.4,1546.6 22314.6,1538.91 22309.1,1532.99 22306,1527.28 22302.5,1523.55 22299.7,1521.35 22296.6,1519.82 22288.5,1517.84 22284.9,1515.64 22281,1513.67 22279,1513.23 22278.8,1513.01 22277.7,1513.45 22277.5,1513.45 22271.8,1513.23 " style="stroke-width:1px;stroke:#8000FF;fill:none;stroke-linecap:round;vector-effect:non-scaling-stroke"/>
<polyline name="EHDAA2:0027605,ureteric tip" points="22240.8,1230.05 22232.9,1227.63 22221.1,1224.78 22214.5,1224.12 22209.7,1223.24 22198,1222.58 22193,1222.8 22190.3,1224.12 22185.9,1230.7 22185.1,1234 22185.3,1237.73 22186.6,1240.36 22189,1242.12 22195.6,1245.41 22199.3,1247.83 22204.6,1250.02 22224.8,1250.9 22232.3,1252.88 22238.8,1252.88 22243.9,1251.12 22247,1250.02 22250.5,1249.58 22257.1,1246.29 22258.8,1244.53 22261,1241.46 22261.7,1238.83 22261.5,1236.63 22260.2,1234.44 22256.6,1231.58 22251.8,1230.27 22247.2,1230.05 22245.9,1229.83 22240.8,1230.05 " style="stroke-width:1px;stroke:#A48F02;fill:none;stroke-linecap:round;vector-effect:non-scaling-stroke"/>
<polyline name="EHDAA2:0027621,cap mesenchyme" points="22217.1,1206.78 22212.1,1206.56 22196.1,1203.26 22185.1,1203.26 22176.9,1205.24 22170.6,1208.09 22163.6,1213.36 22153.7,1224.34 22147.5,1232.24 22142.5,1241.24 22138.1,1252.88 22135.9,1262.32 22134.1,1275.05 22134.4,1282.51 22137.7,1300.95 22142,1314.56 22144.7,1319.61 22148.2,1323.12 22152.6,1326.2 22155.9,1327.29 22160.5,1327.07 22171.2,1324 22182,1318.07 22193.2,1310.39 22196.9,1306.66 22200.2,1303.37 22207.5,1297.88 22211.6,1295.9 22214.7,1295.24 22221.5,1296.34 22223.9,1297.22 22229.6,1302.93 22230.5,1304.9 22233.6,1317.85 22234.5,1327.73 22236.9,1334.76 22238.6,1335.42 22240.6,1334.76 22245,1332.12 22248.3,1329.49 22249.6,1327.73 22250.7,1327.95 22252.5,1331.03 22254.9,1333.22 22257.1,1333.22 22265,1325.32 22270.7,1318.07 22272.7,1311.71 22273.3,1300.95 22274.4,1297.44 22276.4,1294.15 22278.8,1291.73 22283.4,1289.1 22288.3,1287.56 22293.9,1287.12 22296.6,1288 22298.8,1289.1 22299.2,1289.1 22308.9,1283.39 22311.3,1281.85 22313.3,1281.85 22317,1285.59 22319.6,1286.02 22323.4,1285.15 22331.5,1282.07 22336.1,1277.9 22338.5,1273.51 22338.3,1271.32 22337,1267.15 22336.1,1263.85 22332.6,1257.05 22331.1,1250.46 22330.8,1246.51 22328.2,1238.17 22326.4,1235.1 22321.4,1230.92 22315.9,1226.75 22310.4,1223.46 22303.2,1217.75 22298.1,1214.68 22290.9,1210.73 22286.5,1208.97 22280.6,1207.87 22275.3,1207.22 22265.2,1205.24 22256.4,1203.04 22244.1,1201.73 22236.7,1203.48 22234,1204.36 22227.4,1204.8 22226.1,1204.8 22224.4,1206.12 22224.1,1205.9 22217.1,1206.78 " style="stroke-width:1px;stroke:#8000FF;fill:none;stroke-linecap:round;vector-effect:non-scaling-stroke"/>
<polyline name="EHDAA2:0027621,cap mesenchyme" points="22356.3,1465.81 22356.1,1461.42 22353.9,1450.89 22353,1445.18 22351,1438.81 22348.4,1436.18 22342.9,1432.88 22339.4,1430.91 22334.6,1429.81 22328.4,1432.01 22322.7,1434.42 22320.3,1436.18 22316.8,1440.79 22311.1,1444.74 22306.7,1450.01 22301.6,1458.57 22299.2,1464.06 22298.3,1468.45 22298.6,1471.52 22299.9,1474.15 22304.1,1476.79 22310,1482.94 22315.9,1486.23 22316.3,1486.23 22338.1,1496.33 22344.9,1498.08 22352.8,1499.4 22360.5,1499.4 22367.7,1497.2 22376.9,1492.81 22382.4,1489.08 22387.9,1483.59 22391.9,1476.35 22394.5,1469.11 22395.8,1462.08 22396.3,1454.4 22396.3,1442.54 22397.8,1438.81 22401.7,1432.88 22404.8,1426.96 22406.8,1423.01 22407.7,1419.93 22409,1408.08 22409,1397.98 22408.3,1392.49 22406.1,1385.47 22401.3,1375.59 22397.8,1370.76 22393.8,1368.13 22383.3,1368.13 22377.8,1369.66 22366,1375.81 22357.2,1379.98 22349.9,1382.83 22346.4,1385.47 22345.3,1387.44 22345.3,1390.08 22347.5,1398.42 22348.6,1400.4 22351.7,1401.27 22354.3,1400.83 22361.3,1398.86 22369.7,1398.86 22372.8,1399.96 22375.2,1402.59 22377.8,1407.86 22379.8,1415.76 22380.2,1423.01 22379.8,1434.42 22378.7,1440.79 22377.2,1446.06 22372.8,1454.84 22369.3,1460.32 22367.1,1462.74 22363.5,1465.81 22360.9,1466.91 22360.9,1466.69 22359.4,1466.69 22359.2,1466.47 22359.4,1466.47 22356.3,1465.81 " style="stroke-width:1px;stroke:#8000FF;fill:none;stroke-linecap:round;vector-effect:non-scaling-stroke"/>
<polyline name="EHDAA2:0028494,ureteric trunk" points="22309.8,1353.64 22308.2,1347.05 22306,1342.88 22301.8,1338.49 22299,1336.29 22293.3,1333 22290,1331.68 22284.9,1331.25 22279.9,1331.47 22276.4,1333 22272.4,1335.86 22268.9,1340.9 22267.2,1344.42 22265.4,1351.22 22264.1,1362.42 22264.8,1367.47 22266.7,1371.64 22277.1,1382.83 22283,1388.32 22295.3,1399.52 22299.9,1405.01 22302.7,1408.74 22307.3,1412.91 22314.8,1417.96 22320.9,1420.81 22324.5,1423.23 22335.9,1428.71 22340.9,1430.25 22347.7,1434.86 22350.6,1437.93 22352.6,1442.32 22354.1,1448.69 22354.5,1452.86 22357.2,1460.11 22357.4,1460.98 22359.2,1463.84 22361.1,1464.5 22362.7,1463.62 22365.1,1462.3 22369.9,1457.25 22371,1455.71 22371.7,1454.18 22375.8,1446.93 22378,1439.03 22378.7,1418.18 22377.8,1412.47 22372.8,1404.57 22370.6,1402.15 22367.5,1400.83 22365.1,1400.4 22361.1,1401.49 22353,1405.01 22350.6,1404.79 22346.4,1401.93 22342.7,1397.54 22340.1,1394.25 22336.3,1391.18 22332.6,1389.42 22324.7,1388.98 22322.1,1387.22 22319,1383.93 22316.8,1380.2 22312.2,1373.61 22310,1367.91 22309.5,1363.52 22310,1358.47 22310,1357.37 22309.8,1357.15 22309.8,1353.64 " style="stroke-width:1px;stroke:#B3B300;fill:none;stroke-linecap:round;vector-effect:non-scaling-stroke"/>
<polyline name="EHDAA2:0028494,ureteric trunk" points="22277.3,1386.13 22276.2,1386.78 22273.3,1390.08 22268.7,1394.03 22263.9,1396.88 22260.4,1397.98 22253.1,1397.76 22247,1395.79 22243.9,1394.69 22239.5,1392.71 22229,1386.57 22223.9,1385.69 22219.1,1385.91 22216.7,1386.78 22214.3,1388.98 22213.2,1390.74 22212.7,1392.49 22212.9,1395.57 22214.1,1398.86 22216.7,1403.47 22219.3,1405.01 22225.5,1405.01 22236,1403.69 22237.1,1403.91 22253.8,1403.25 22258.6,1403.69 22261.5,1404.57 22263.2,1404.57 22265.8,1405.44 22267.2,1404.79 22269.2,1403.25 22272.7,1402.15 22274.4,1400.61 22276.6,1396.22 22278.4,1391.39 22279,1388.1 22278.8,1386.57 22278.4,1386.35 22277.9,1385.91 22277.9,1385.69 22277.3,1386.13 " style="stroke-width:1px;stroke:#B3B300;fill:none;stroke-linecap:round;vector-effect:non-scaling-stroke"/>
<polyline name="EHDAA2:0027621,cap mesenchyme" points="21856.7,1295.9 21860.2,1291.07 21877.3,1274.83 21889.6,1263.85 21896.6,1251.56 21897.9,1246.29 21897.5,1242.34 21885.6,1226.09 21879.1,1218.19 21874.2,1212.92 21867.6,1207.65 21852.7,1202.83 21847,1200.19 21841.3,1198.87 21817.6,1198.87 21805.7,1201.51 21795.6,1206.34 21781.2,1216 21769.3,1226.53 21763.2,1236.19 21761.4,1243.22 21761.8,1249.36 21764.5,1254.63 21773.3,1266.49 21779.8,1281.85 21783.8,1286.24 21789.9,1289.76 21799.2,1291.95 21821.1,1298.1 21833,1298.1 21843.9,1298.1 21845.3,1298.54 21852.7,1298.54 21853.2,1298.1 21856.7,1295.9 " style="stroke-width:1px;stroke:#8000FF;fill:none;stroke-linecap:round;vector-effect:non-scaling-stroke"/>
<polyline name="EHDAA2:0027621,cap mesenchyme" points="21665.2,1435.96 21654.7,1433.32 21649,1430.69 21638.9,1423.23 21631.4,1413.13 21628.8,1405.66 21629.2,1396.88 21630.1,1391.61 21632.8,1385.91 21639.8,1380.64 21655.1,1371.42 21658.7,1364.39 21660.8,1357.81 21666.6,1347.27 21667.4,1338.93 21676.7,1323.56 21678.4,1318.29 21679.7,1307.32 21679.7,1295.9 21674.5,1279.22 21673.2,1276.58 21670.1,1274.39 21659.1,1274.39 21655.6,1275.27 21646.4,1280.98 21621.8,1297.22 21617.8,1301.17 21610.4,1312.59 21603.8,1326.64 21596.3,1346.39 21591.5,1368.78 21590.2,1384.59 21590.6,1399.96 21593.2,1417.08 21598.1,1430.69 21601.6,1437.71 21606.4,1442.54 21616.5,1451.32 21621.8,1453.08 21627.5,1454.4 21633.6,1458.79 21639.3,1459.67 21643.3,1458.35 21647.7,1454.4 21648.6,1453.96 21660.4,1453.96 21663.1,1453.08 21665.2,1447.81 21667.4,1443.42 21668.3,1440.79 21668.3,1439.91 21667.4,1437.27 21667.4,1436.4 21665.2,1435.96 " style="stroke-width:1px;stroke:#8000FF;fill:none;stroke-linecap:round;vector-effect:non-scaling-stroke"/>
<polyline name="EHDAA2:0027621,cap mesenchyme" points="21848.3,1642.31 21847.4,1641.87 21838.7,1623.43 21832.1,1615.09 21825.9,1610.26 21822,1609.38 21817.6,1613.33 21807.9,1627.82 21799.2,1639.67 21794.8,1648.89 21793.9,1657.67 21797,1666.46 21804,1673.92 21811,1678.31 21821.5,1682.26 21828.1,1683.58 21833,1682.7 21843.1,1678.31 21847,1675.24 21849.6,1670.41 21851.8,1659.43 21850.1,1651.09 21849.2,1648.89 21849.2,1648.46 21848.3,1642.31 " style="stroke-width:1px;stroke:#8000FF;fill:none;stroke-linecap:round;vector-effect:non-scaling-stroke"/>
<polyline name="EHDAA2:0027678,renal vesicle" points="21723.2,1377.35 21717.1,1374.71 21711.8,1371.64 21709.2,1369.88 21699.9,1365.93 21693.3,1366.37 21684.6,1367.69 21670.1,1368.13 21661.3,1372.96 21655.1,1379.1 21649.9,1387.44 21648.1,1389.64 21644.6,1398.86 21645.1,1406.76 21649,1413.35 21653.8,1418.62 21657.8,1422.13 21662.6,1424.32 21669.2,1424.32 21672.3,1422.57 21689.4,1419.49 21698.2,1414.66 21703.4,1411.59 21711.8,1404.13 21718.4,1400.18 21724.5,1399.3 21735.9,1398.86 21740.8,1396.66 21744.3,1393.15 21745.2,1388.76 21744.7,1384.81 21742.5,1381.3 21740.8,1380.42 21731.1,1380.42 21730.7,1379.98 21728,1378.66 21727.6,1378.66 21723.2,1377.35 " style="stroke-width:1px;stroke:#8080FF;fill:none;stroke-linecap:round;vector-effect:non-scaling-stroke"/>
<polyline name="EHDAA2:0027678,renal vesicle" points="21887.8,1563.94 21888.3,1562.62 21891.8,1557.79 21892.7,1552.52 21890,1544.62 21892.2,1539.35 21895.7,1536.28 21907.6,1530.13 21912,1530.57 21913.3,1534.52 21913.3,1541.99 21904.5,1562.18 21899.7,1565.26 21896.2,1567.01 21895.3,1568.77 21897.5,1571.4 21901.9,1575.79 21906.7,1584.57 21908.5,1589.4 21910.7,1598.62 21910.2,1608.72 21905.8,1629.36 21902.3,1632.87 21896.6,1638.14 21890.5,1639.89 21878.6,1636.38 21875.5,1635.06 21869.8,1627.16 21863.3,1616.62 21860.6,1608.28 21860.6,1596.87 21864.1,1587.65 21871.6,1576.23 21877.7,1570.09 21883,1565.7 21883.9,1565.26 21887.8,1563.94 " style="stroke-width:1px;stroke:#8080FF;fill:none;stroke-linecap:round;vector-effect:non-scaling-stroke"/>
<polyline name="EHDAA2:0018679,renal capsule" points="22092,1214.46 22069.2,1208.31 22034.9,1203.04 21997.2,1193.39 21926.9,1186.36 21902.3,1187.24 21874.2,1189.87 21864.6,1189 21850.5,1185.48 21785.5,1183.73 21707.4,1203.92 21674.9,1217.09 21660,1226.75 21640.7,1246.07 21624.8,1266.27 21595,1311.05 21582.7,1333.88 21576.6,1350.56 21571.3,1389.2 21571.3,1419.05 21575.7,1435.74 21580.9,1460.32 21584.5,1490.18 21590.6,1514.77 21599.4,1541.11 21618.7,1577.99 21644.2,1611.36 21661.7,1622.77 21688.1,1637.7 21718.8,1658.77 21755.7,1680.72 21776.8,1689.51 21787.3,1693.02 21810.1,1701.8 21855.8,1715.85 21871.6,1721.12 21892.7,1722.87 21905,1727.26 21914.6,1728.14 21923.4,1729.9 21941.8,1731.65 21951.5,1732.53 21960.3,1734.29 21978.7,1734.29 21991,1736.04 22011.2,1736.04 22028.8,1733.41 22045.4,1733.41 22078.8,1722.87 22128,1706.19 22149.9,1700.92 22179.8,1694.77 22191.2,1691.26 22197.4,1686.87 22203.5,1681.6 22212.3,1679.85 22231.6,1678.97 22264.1,1669.31 22304.5,1651.75 22321.2,1641.21 22339.6,1626.28 22359.8,1606.09 22389.7,1570.96 22406.3,1539.35 22421.3,1505.99 22449.4,1460.32 22452.9,1439.25 22452,1397.98 22447.6,1384.81 22435.3,1358.47 22423.9,1322.47 22415.1,1303.15 22404.6,1279.44 22389.7,1259.24 22373.9,1243.44 22356.3,1225.88 22336.1,1214.46 22324.7,1208.31 22317.7,1203.04 22301.8,1196.9 22286.9,1190.75 22275.5,1189 22257.9,1187.24 22195.6,1187.24 22161.4,1190.75 22137.7,1198.65 22116.6,1208.31 22106.9,1211.83 22106,1211.83 22104.3,1210.95 22103.4,1210.95 22092,1214.46 " style="stroke-width:1px;stroke:#FFFFFF;fill:none;stroke-linecap:round;vector-effect:non-scaling-stroke"/>
<polyline name="EHDAA2:0027621,cap mesenchyme" points="22092,1214.46 22069.2,1208.31 22034.9,1203.04 21997.2,1193.39 21926.9,1186.36 21902.3,1187.24 21874.2,1189.87 21864.6,1189 21850.5,1185.48 21785.5,1183.73 21707.4,1203.92 21674.9,1217.09 21660,1226.75 21640.7,1246.07 21624.8,1266.27 21595,1311.05 21582.7,1333.88 21576.6,1350.56 21571.3,1389.2 21571.3,1419.05 21575.7,1435.74 21580.9,1460.32 21584.5,1490.18 21590.6,1514.77 21599.4,1541.11 21618.7,1577.99 21644.2,1611.36 21661.7,1622.77 21688.1,1637.7 21718.8,1658.77 21755.7,1680.72 21776.8,1689.51 21787.3,1693.02 21810.1,1701.8 21855.8,1715.85 21871.6,1721.12 21892.7,1722.87 21905,1727.26 21914.6,1728.14 21923.4,1729.9 21941.8,1731.65 21951.5,1732.53 21960.3,1734.29 21978.7,1734.29 21991,1736.04 22011.2,1736.04 22028.8,1733.41 22045.4,1733.41 22078.8,1722.87 22128,1706.19 22149.9,1700.92 22179.8,1694.77 22191.2,1691.26 22197.4,1686.87 22203.5,1681.6 22212.3,1679.85 22231.6,1678.97 22264.1,1669.31 22304.5,1651.75 22321.2,1641.21 22339.6,1626.28 22359.8,1606.09 22389.7,1570.96 22406.3,1539.35 22421.3,1505.99 22449.4,1460.32 22452.9,1439.25 22452,1397.98 22447.6,1384.81 22435.3,1358.47 22423.9,1322.47 22415.1,1303.15 22404.6,1279.44 22389.7,1259.24 22373.9,1243.44 22356.3,1225.88 22336.1,1214.46 22324.7,1208.31 22317.7,1203.04 22301.8,1196.9 22286.9,1190.75 22275.5,1189 22257.9,1187.24 22195.6,1187.24 22161.4,1190.75 22137.7,1198.65 22116.6,1208.31 22106.9,1211.83 22106,1211.83 22104.3,1210.95 22103.4,1210.95 22092,1214.46 " style="stroke-width:1px;stroke:#8000FF;fill:none;stroke-linecap:round;vector-effect:non-scaling-stroke"/>
<polyline name="EHDAA2:0027678,renal vesicle" points="22092,1214.47 22069.2,1208.32 22035,1203.05 21997.2,1193.4 21927,1186.37 21902.4,1187.25 21874.3,1189.88 21864.6,1189.01 21850.6,1185.49 21785.6,1183.74 21707.4,1203.93 21674.9,1217.1 21660,1226.76 21640.7,1246.08 21624.9,1266.28 21595,1311.06 21582.8,1333.89 21576.6,1350.57 21571.3,1389.21 21571.3,1419.06 21575.7,1435.75 21581,1460.33 21584.5,1490.19 21590.7,1514.78 21599.4,1541.12 21618.8,1578 21644.2,1611.37 21661.8,1622.78 21688.1,1637.71 21718.8,1658.78 21755.7,1680.73 21776.8,1689.52 21787.3,1693.03 21810.2,1701.81 21855.8,1715.86 21871.6,1721.13 21892.7,1722.88 21905,1727.27 21914.7,1728.15 21923.4,1729.91 21941.9,1731.66 21951.6,1732.54 21960.3,1734.3 21978.8,1734.3 21991.1,1736.05 22011.3,1736.05 22028.8,1733.42 22045.5,1733.42 22078.9,1722.88 22128,1706.2 22150,1700.93 22179.8,1694.78 22191.3,1691.27 22197.4,1686.88 22203.6,1681.61 22212.3,1679.86 22231.7,1678.98 22264.2,1669.32 22304.5,1651.76 22321.2,1641.22 22339.7,1626.29 22359.9,1606.1 22389.7,1570.97 22406.4,1539.36 22421.3,1506 22449.4,1460.33 22452.9,1439.26 22452.1,1397.99 22447.7,1384.82 22435.4,1358.48 22424,1322.48 22415.2,1303.16 22404.6,1279.45 22389.7,1259.25 22373.9,1243.45 22356.3,1225.89 22336.2,1214.47 22324.7,1208.32 22317.7,1203.05 22301.9,1196.91 22287,1190.76 22275.6,1189.01 22258,1187.25 22195.7,1187.25 22161.4,1190.76 22137.7,1198.66 22116.6,1208.32 22107,1211.84 22106.1,1211.84 22104.3,1210.96 22103.5,1210.96 22092,1214.47 " style="stroke-width:1px;stroke:#8080FF;fill:none;stroke-linecap:round;vector-effect:non-scaling-stroke"/>
<polyline name="EHDAA2:0028494,ureteric trunk" points="22091.6,1214.05 22068.8,1207.9 22034.5,1202.63 21996.8,1192.98 21926.5,1185.95 21901.9,1186.83 21873.8,1189.46 21864.2,1188.59 21850.1,1185.07 21785.1,1183.32 21707,1203.51 21674.5,1216.68 21659.6,1226.34 21640.3,1245.66 21624.4,1265.86 21594.6,1310.64 21582.3,1333.47 21576.1,1350.15 21570.9,1388.79 21570.9,1418.64 21575.3,1435.33 21580.5,1459.91 21584.1,1489.77 21590.2,1514.36 21599,1540.7 21618.3,1577.58 21643.8,1610.95 21661.3,1622.36 21687.7,1637.29 21718.4,1658.36 21755.3,1680.31 21776.3,1689.1 21786.9,1692.61 21809.7,1701.39 21855.4,1715.44 21871.2,1720.71 21892.3,1722.46 21904.6,1726.85 21914.2,1727.73 21923,1729.49 21941.4,1731.24 21951.1,1732.12 21959.9,1733.88 21978.3,1733.88 21990.6,1735.63 22010.8,1735.63 22028.4,1733 22045,1733 22078.4,1722.46 22127.6,1705.78 22149.5,1700.51 22179.4,1694.36 22190.8,1690.85 22196.9,1686.46 22203.1,1681.19 22211.9,1679.44 22231.2,1678.56 22263.7,1668.9 22304.1,1651.34 22320.8,1640.8 22339.2,1625.87 22359.4,1605.68 22389.3,1570.55 22405.9,1538.94 22420.9,1505.58 22449,1459.91 22452.5,1438.84 22451.6,1397.57 22447.2,1384.4 22434.9,1358.06 22423.5,1322.06 22414.7,1302.74 22404.2,1279.03 22389.3,1258.83 22373.4,1243.03 22355.9,1225.47 22335.7,1214.05 22324.3,1207.9 22317.3,1202.63 22301.4,1196.49 22286.5,1190.34 22275.1,1188.59 22257.5,1186.83 22195.2,1186.83 22160.9,1190.34 22137.2,1198.24 22116.2,1207.9 22106.5,1211.42 22105.6,1211.42 22103.9,1210.54 22103,1210.54 22091.6,1214.05 " style="stroke-width:1px;stroke:#B3B300;fill:none;stroke-linecap:round;vector-effect:non-scaling-stroke"/>
<polyline name="EHDAA2:0027605,ureteric tip" points="22091.9,1214.51 22069.1,1208.36 22034.8,1203.09 21997.1,1193.44 21926.8,1186.41 21902.2,1187.29 21874.1,1189.92 21864.5,1189.05 21850.4,1185.53 21785.4,1183.78 21707.3,1203.97 21674.8,1217.14 21659.9,1226.8 21640.6,1246.12 21624.7,1266.32 21594.9,1311.1 21582.6,1333.93 21576.4,1350.61 21571.2,1389.25 21571.2,1419.1 21575.6,1435.79 21580.8,1460.37 21584.3,1490.23 21590.5,1514.82 21599.3,1541.16 21618.6,1578.04 21644.1,1611.41 21661.6,1622.82 21688,1637.75 21718.7,1658.82 21755.6,1680.77 21776.7,1689.56 21787.2,1693.07 21810,1701.85 21855.7,1715.9 21871.5,1721.17 21892.6,1722.92 21904.8,1727.31 21914.5,1728.19 21923.3,1729.95 21941.7,1731.7 21951.4,1732.58 21960.2,1734.34 21978.6,1734.34 21990.9,1736.09 22011.1,1736.09 22028.7,1733.46 22045.3,1733.46 22078.7,1722.92 22127.9,1706.24 22149.8,1700.97 22179.7,1694.82 22191.1,1691.31 22197.3,1686.92 22203.4,1681.65 22212.2,1679.9 22231.5,1679.02 22264,1669.36 22304.4,1651.8 22321.1,1641.26 22339.5,1626.33 22359.7,1606.14 22389.6,1571.01 22406.2,1539.4 22421.2,1506.04 22449.3,1460.37 22452.8,1439.3 22451.9,1398.03 22447.5,1384.86 22435.2,1358.52 22423.8,1322.52 22415,1303.2 22404.5,1279.49 22389.6,1259.29 22373.8,1243.49 22356.2,1225.93 22336,1214.51 22324.6,1208.36 22317.6,1203.09 22301.7,1196.95 22286.8,1190.8 22275.4,1189.05 22257.8,1187.29 22195.5,1187.29 22161.3,1190.8 22137.5,1198.7 22116.5,1208.36 22106.8,1211.88 22105.9,1211.88 22104.2,1211 22103.3,1211 22091.9,1214.51 " style="stroke-width:1px;stroke:#A48F02;fill:none;stroke-linecap:round;vector-effect:non-scaling-stroke"/>
<!-- <polyline name="BrainMakerSection" points="24377.4,-0.708965 20546.6,-0.648965 " style="stroke-width:1px;stroke:#FF0000;fill:none;stroke-linecap:round;vector-effect:non-scaling-stroke"/>
<polyline name="BrainMakerSection" points="20546.7,4058.86 20546.7,3341.37 20546.6,-0.658965 24377.5,4058.85 24377.5,1438.88 24377.4,-0.698965 20546.7,4058.85 23091.8,4058.84 24377.5,4058.83 " style="stroke-width:1px;stroke:#FF0000;fill:none;stroke-linecap:round;vector-effect:non-scaling-stroke"/>
<polyline name="BrainMakerSection" points="10423.5,473.521 14259,473.401 10423.4,4531.62 10423.5,473.531 14260.2,4530.5 14260.1,473.501 " style="stroke-width:1px;stroke:#FF0000;fill:none;stroke-linecap:round;vector-effect:non-scaling-stroke"/> -->
<polyline name="EHDAA2:0027605,ureteric tip" points="11481.3,1839.68 11476.7,1845.28 11475.5,1850.53 11478.3,1855.85 11482.8,1858.2 11488.6,1862.08 11495.5,1865.25 11503,1865.74 11511.2,1865.67 11522.4,1863.87 11530.3,1860.76 11533.7,1855.79 11532.7,1851.16 11528,1843.14 11524.8,1839.54 11519,1836.29 11511.7,1833.25 11503.3,1832.63 11494.3,1834.01 11487.8,1835.6 11481.3,1839.68 " style="stroke-width:1px;stroke:#A48F02;fill:none;stroke-linecap:round;vector-effect:non-scaling-stroke"/>
<polyline name="EHDAA2:0027605,ureteric tip" points="1395.66,1642.26 1400.85,1638.69 1409.73,1633.91 1415.92,1632.15 1426.49,1631.04 1436.25,1632.62 1445.06,1637.23 1453.47,1641.91 1459.55,1648.74 1460.42,1653.06 1458.32,1657.97 1455.69,1661.3 1451.55,1663.46 1445.12,1665.09 1438.52,1666.38 1429.53,1666.09 1423.05,1665.38 1415.75,1663.63 1408.15,1661.06 1403.01,1657.15 1397.7,1651.89 1395.66,1642.26 " style="stroke-width:1px;stroke:#A48F02;fill:none;stroke-linecap:round;vector-effect:non-scaling-stroke"/>
<polyline name="EHDAA2:0027605,ureteric tip" points="11290.3,1836.27 11288.7,1832.88 11289.7,1827.87 11292.7,1824.95 11294.9,1821.71 11296.9,1817.53 11298.7,1811.16 11298.8,1798.11 11300.7,1794.14 11301.5,1789.81 11307.7,1775.03 11308.6,1770.49 11308.8,1767.52 11317,1755.09 11320.4,1751.28 11323.8,1745.69 11329.8,1737.71 11333.3,1733.53 11336.3,1725.44 11336.9,1724.45 11342,1716.25 11343.5,1710.71 11345.6,1706.54 11349.1,1701.94 11354.7,1694.11 11358.1,1690.51 11361,1686.07 11363.8,1681.74 11364.4,1681.43 11366.4,1680.43 11379,1673.23 11383,1670.72 11385.8,1668.64 11388.6,1664.93 11391.9,1661.74 11395.6,1660.49 11396.8,1657.78 11403.9,1650.78 11410.1,1646.39 11416.4,1643.58 11418.9,1640.97 11421.5,1639.29 11425.7,1636.63 11438.3,1634.05 11453.3,1630.41 11472.3,1625.15 11514.7,1625.42 11559.3,1627.1 11603.9,1629.4 11649.4,1626.43 11694.7,1623.73 11739.9,1621.04 11784.7,1619.15 11830.4,1615.17 11876,1610.93 11878.9,1610.25 11919.3,1604.05 11926.7,1602.36 11934.8,1601.29 11959.8,1597.78 11967,1597.65 11978.2,1599.26 11993,1599.33 12006.7,1600.67 12012.7,1601.84 12023.2,1612.99 12027.9,1617.91 12034,1621.24 12038.5,1623.06 12044,1624.66 12048.2,1625.09 12056.9,1629.48 12062.3,1634.52 12071.3,1640.95 12076.6,1644.27 12086.3,1650.8 12089.8,1656.16 12094.2,1664.41 12099.1,1672.23 12102.1,1678.55 12109.8,1683.48 12112.8,1688.94 12113.9,1693.76 12115.8,1699.76 12118.4,1705.01 12120.9,1708.12 12134.3,1726.54 12135.1,1727.62 12137.3,1732.44 12140.9,1741.54 12142.6,1750.22 12144.3,1754.83 12148.3,1763.72 12153,1769.72 12155.2,1781.61 12158.1,1791.36 12161.6,1805.5 12160.2,1813 12152.9,1832.71 12150.1,1846.1 12150,1861.21 12133.5,1886.71 12125.4,1905.99 12120.4,1913.7 12114.7,1922.17 12094.4,1952.59 12087.5,1964.59 12080.2,1972.73 12070,1996.41 12064.3,2007.87 12037.3,2041.3 12029.8,2050.83 12017.8,2059.72 11998.8,2072.58 11984.9,2083.61 11972.1,2090.25 11951.5,2102.28 11948.1,2103.29 11943,2105.01 11939.6,2105.72 11935.2,2105.62 11931.8,2104.4 11927,2104 11921.5,2104.1 11920,2104.91 11918.8,2107.94 11917.2,2111.28 11915.5,2114.31 11913.5,2117.03 11910.5,2120.17 11907.2,2122.69 11900.1,2124.01 11895.7,2123.9 11892,2125.82 11888.4,2127.54 11882.6,2129.06 11877.1,2130.37 11870.8,2131.68 11867.3,2133 11863.1,2135.12 11856.2,2138.56 11848.7,2140.98 11842.6,2141.18 11838,2139.97 11834.3,2142.7 11833.3,2146.64 11825.8,2149.87 11822.9,2150.88 11817.5,2151.59 11809.8,2152.2 11805.2,2152.9 11799.9,2153.61 11793.6,2154.01 11788.1,2155.63 11785,2158.16 11782.1,2161.29 11777.5,2163.61 11769.8,2167.65 11763.7,2167.55 11757.1,2165.33 11754.5,2164.93 11752.7,2165.63 11751.1,2166.54 11746.8,2167.55 11740.1,2168.16 11737.1,2167.96 11734,2167.55 11731.6,2167.35 11725.3,2166.74 11718.4,2166.54 11712,2166.44 11708.5,2166.24 11700.7,2167.35 11692.3,2167.55 11688.2,2167.35 11685.1,2166.54 11682.7,2166.04 11679.7,2165.94 11676.2,2166.44 11670.9,2167.05 11659.4,2166.24 11655.1,2166.24 11643.9,2164.83 11641.5,2163.92 11637.1,2160.99 11632.8,2160.68 11627.1,2160.28 11618.5,2157.85 11613.5,2157.15 11604.1,2156.74 11597.8,2155.53 11589.1,2154.72 11575.9,2155.43 11572.2,2154.42 11564.2,2152.09 11557.6,2148.96 11553.2,2146.13 11545.3,2145.43 11513.7,2136.43 11508,2135.22 11504.7,2135.22 11494.4,2133.6 11489.2,2128.45 11487.1,2122.39 11476.3,2121.48 11467.4,2120.47 11451.6,2108.65 11446.7,2103.8 11442.3,2100.26 11435.3,2100.26 11428,2095.51 11418.3,2090.76 11410.3,2086.72 11402.9,2082.08 11397,2076.01 11387.9,2065.91 11386.2,2060.15 11380.9,2055.4 11375.9,2052.67 11367.5,2049.54 11345.5,2021.25 11342.1,2016.6 11319.6,1980.53 11307,1936.38 11304,1926.68 11300.9,1914.05 11290.6,1891.82 11289,1884.25 11288,1877.37 11292.4,1871.72 11291.2,1838.68 11290.3,1836.27 " style="stroke-width:1px;stroke:#A48F02;fill:none;stroke-linecap:round;vector-effect:non-scaling-stroke"/>
<!-- <polyline name="BrainMakerSection" points="10423.4,4531.65 14260.2,4530.51 " style="stroke-width:1px;stroke:#FF0000;fill:none;stroke-linecap:round;vector-effect:non-scaling-stroke"/>
<polyline name="BrainMakerSection" points="30346,236.341 34176.9,236.411 30345.9,4302.4 30345.9,236.341 34177,4302.36 34177,236.401 " style="stroke-width:1px;stroke:#FF0000;fill:none;stroke-linecap:round;vector-effect:non-scaling-stroke"/>
<polyline name="BrainMakerSection" points="30345.9,4302.45 34177,4302.37 " style="stroke-width:1px;stroke:#FF0000;fill:none;stroke-linecap:round;vector-effect:non-scaling-stroke"/> -->
<polyline name="EHDAA2:0027605,ureteric tip" points="1251.83,1512.3 1243.49,1526.35 1236.03,1536.88 1227.25,1549.84 1217.81,1570.69 1212.98,1582.76 1211.33,1601.86 1206.72,1612.4 1201.23,1621.84 1205.62,1628.42 1204.96,1646.21 1204.53,1658.28 1202.33,1667.72 1206.94,1677.6 1205.51,1683.52 1211.22,1690.55 1216.93,1711.84 1219.12,1739.5 1225.93,1752.23 1227.25,1759.26 1234.27,1769.58 1268.63,1833.9 1275.65,1841.14 1284.87,1847.07 1292.33,1852.56 1301.88,1864.41 1309.57,1876.04 1322.3,1882.41 1333.06,1889.66 1343.15,1898.44 1353.91,1906.56 1368.62,1914.24 1379.37,1920.83 1390.35,1922.8 1397.81,1929.83 1407.69,1936.19 1414.94,1937.73 1423.72,1943.44 1430.74,1945.85 1439.63,1947.61 1448.41,1948.93 1461.15,1954.41 1472.12,1959.46 1480.25,1961.44 1492.98,1961 1502.64,1962.76 1513.61,1967.37 1530.3,1970 1548.08,1972.42 1555.76,1978.12 1564.98,1980.98 1583.75,1983.39 1594.95,1984.27 1605.04,1987.78 1623.04,1987.78 1646.75,1989.1 1664.97,1989.76 1674.19,1991.29 1677.92,1987.78 1686.49,1984.71 1696.15,1983.17 1697.46,1983.17 1717.11,1979.88 1744.11,1978.34 1764.31,1973.51 1789.77,1966.05 1806.45,1962.76 1820.5,1959.46 1829.5,1954.19 1833.46,1942.56 1843.11,1928.73 1861.34,1924.34 1877.14,1916.44 1894.04,1909.41 1895.14,1902.61 1911.39,1893.61 1923.02,1885.05 1936.63,1875.39 1946.51,1862.87 1964.29,1852.34 1998.87,1816.12 2007.65,1807.55 2018.4,1793.07 2029.16,1774.63 2043.21,1755.31 2057.37,1732.26 2061.54,1716.45 2076.03,1686.16 2082.39,1678.48 2081.52,1663.33 2085.14,1622.28 2083.38,1608.23 2077.45,1587.81 2070.21,1574.86 2065.05,1565.42 2061.54,1563.88 2057.81,1559.27 2054.3,1552.25 2053.86,1545.88 2052.98,1540.62 2047.49,1531.18 2042.66,1523.49 2037.83,1516.47 2029.93,1507.03 2022.24,1500.22 2012.59,1488.15 2004.13,1480.25 1988.55,1468.61 1980.65,1461.81 1967.69,1455.22 1954.08,1451.71 1934.77,1447.98 1916.11,1445.12 1906.89,1444.03 1892.62,1443.59 1880.76,1443.81 1868.36,1446.88 1852.55,1447.54 1833.24,1450.17 1807.11,1449.51 1786.26,1446.44 1758.6,1442.71 1733.35,1437.66 1707.23,1430.63 1669.03,1425.15 1656.74,1423.17 1634.79,1418.12 1615.25,1412.85 1605.15,1410.88 1589.9,1409.56 1573.87,1407.15 1552.8,1416.59 1537.87,1420.54 1527.77,1427.34 1521.41,1429.54 1509.33,1426.68 1500.11,1424.05 1489.79,1420.54 1480.57,1419.66 1471.13,1420.1 1438.54,1419.22 1418.12,1416.37 1405.61,1415.05 1391.56,1419.88 1375.64,1425.8 1360.28,1430.63 1343.15,1437.88 1325.15,1442.93 1315.49,1446.22 1304.52,1452.37 1294.2,1456.32 1288.27,1465.1 1280.15,1472.34 1270.71,1485.52 1262.81,1499.56 1251.83,1512.3 " style="stroke-width:1px;stroke:#A48F02;fill:none;stroke-linecap:round;vector-effect:non-scaling-stroke"/>
<!-- <polyline name="BrainMakerSection" points="-0.00992203,236.431 4460.14,236.431 0.010078,4530.53 7.82013e-005,3334.5 0.0200782,236.461 4460.06,4530.48 4460.17,2156.87 4460.2,236.451 " style="stroke-width:1px;stroke:#FF0000;fill:none;stroke-linecap:round;vector-effect:non-scaling-stroke"/>
<polyline name="BrainMakerSection" points="0.0300779,4530.49 4460.13,4530.49 " style="stroke-width:1px;stroke:#FF0000;fill:none;stroke-linecap:round;vector-effect:non-scaling-stroke"/> -->
<polyline name="EHDAA2:0027605,ureteric tip" points="31635.9,1661.66 31642.5,1655.96 31656.3,1652.22 31669.3,1651.56 31678.1,1654.42 31685.5,1662.76 31688.2,1667.81 31688.4,1672.2 31688.4,1675.49 31685.3,1679.44 31678.1,1684.49 31675.9,1686.47 31665.6,1685.59 31659.6,1685.15 31652.6,1681.86 31645.4,1678.35 31641.2,1675.05 31637.2,1669.57 31634.8,1666.49 31635.9,1661.66 " style="stroke-width:1px;stroke:#A48F02;fill:none;stroke-linecap:round;vector-effect:non-scaling-stroke"/>
<polyline name="EHDAA2:0027605,ureteric tip" points="31484.1,1577.55 31476,1588.31 31473.8,1599.94 31470.5,1612.23 31467.7,1622.77 31462.4,1635.72 31461.5,1648.89 31464.6,1664.26 31464.6,1673.48 31467.6,1712.77 31470.4,1726.38 31475.2,1747.9 31478.5,1760.41 31486.3,1785.88 31495.8,1795.97 31498.6,1803.88 31502.1,1812.44 31506.7,1819.24 31509.6,1828.02 31530.2,1843.17 31543.2,1853.05 31583.3,1874.34 31598.6,1885.76 31610.7,1897.61 31623.6,1912.32 31636.4,1919.78 31648.7,1927.69 31660.1,1932.74 31668.4,1937.78 31678.5,1945.03 31691.4,1951.83 31707.4,1956 31723.2,1959.96 31733.3,1965.88 31751.1,1975.32 31764.7,1980.15 31776.1,1980.37 31788.4,1984.76 31802.4,1992.45 31809.3,1996.62 31817.8,2000.13 31844.5,2003.86 31862.7,2004.08 31880.3,2006.93 31903.1,2006.49 31920.4,2005.4 31935.8,2001.01 31946.8,1997.49 31960.6,1997.71 31981.1,1991.13 32009.2,1986.3 32017.3,1981.25 32038.4,1968.96 32054,1960.61 32071.8,1949.42 32083.9,1940.64 32097.7,1934.27 32143.5,1907.27 32159.5,1901.12 32172.2,1893.88 32183.6,1887.29 32195.5,1876.54 32204.9,1867.76 32216.3,1853.71 32226,1842.73 32250.3,1811.56 32269.8,1788.51 32284.3,1770.51 32291.1,1753.82 32301.5,1728.8 32303.3,1717.38 32308,1711.46 32316.1,1681.16 32314.8,1648.23 32307.1,1619.92 32298.8,1598.18 32291.1,1587.65 32285.8,1574.26 32277.4,1555.16 32266.2,1537.6 32252.1,1517.84 32234.3,1508.84 32221.4,1499.84 32208.9,1495.45 32199.4,1487.32 32189.2,1481.84 32162.5,1477.45 32139,1474.59 32117.9,1473.49 32103.2,1473.06 32088,1479.86 32068.1,1481.4 32063.7,1481.62 32030.6,1487.32 32014.4,1490.18 31998.1,1489.74 31985.2,1486.01 31974.4,1485.79 31960.4,1483.81 31947.7,1480.3 31939.8,1478.1 31925.7,1475.69 31904.7,1467.35 31879.1,1460.76 31861.9,1457.91 31846.1,1455.27 31825.7,1453.74 31803.3,1457.25 31792.6,1456.81 31770.7,1458.57 31754,1456.59 31744.2,1451.98 31719.6,1448.03 31699.4,1445.4 31686,1446.49 31675.2,1443.2 31656.8,1443.42 31633.6,1451.32 31619.6,1457.03 31607.9,1459.45 31598.7,1462.08 31593.7,1467.13 31581.4,1469.76 31563.4,1474.81 31549.8,1477.89 31539.5,1482.06 31531.6,1490.4 31526.5,1501.81 31521.7,1509.72 31510.8,1526.18 31508.6,1537.38 31502.7,1545.72 31496.1,1555.82 31484.1,1577.55 " style="stroke-width:1px;stroke:#A48F02;fill:none;stroke-linecap:round;vector-effect:non-scaling-stroke"/>
<!-- <circle cx="20546.9" cy="3587.45" r="0.25" stroke="#80FF00" stroke-width="0.25"/>
<circle cx="20548.9" cy="3587.45" r="0.25" stroke="#00FFFF" stroke-width="0.25"/>
<circle cx="20550.9" cy="3587.45" r="0.25" stroke="#80FF00" stroke-width="0.25"/>
<circle cx="20552.9" cy="3587.45" r="0.25" stroke="#00FFFF" stroke-width="0.25"/>
<circle cx="20554.9" cy="3587.45" r="0.25" stroke="#80FF00" stroke-width="0.25"/>
<circle cx="20556.9" cy="3587.45" r="0.25" stroke="#00FFFF" stroke-width="0.25"/>
<circle cx="20558.9" cy="3587.45" r="0.25" stroke="#80FF00" stroke-width="0.25"/>
<circle cx="20560.9" cy="3587.45" r="0.25" stroke="#00FFFF" stroke-width="0.25"/> -->
<!-- <polyline name="Cross" points="24358.8,3555.32 24362.8,3551.32 " style="stroke-width:0.5;stroke:#0080FF;fill:none;stroke-linecap:round"/>
<polyline name="Cross" points="24362.8,3555.32 24358.8,3551.32 " style="stroke-width:0.5;stroke:#0080FF;fill:none;stroke-linecap:round"/>

<polyline name="Cross" points="24360.8,3555.32 24364.8,3551.32 " style="stroke-width:0.5;stroke:#80FF00;fill:none;stroke-linecap:round"/>
<polyline name="Cross" points="24364.8,3555.32 24360.8,3551.32 " style="stroke-width:0.5;stroke:#80FF00;fill:none;stroke-linecap:round"/>

<polyline name="Cross" points="24362.8,3555.32 24366.8,3551.32 " style="stroke-width:0.5;stroke:#0080FF;fill:none;stroke-linecap:round"/>
<polyline name="Cross" points="24366.8,3555.32 24362.8,3551.32 " style="stroke-width:0.5;stroke:#0080FF;fill:none;stroke-linecap:round"/>

<polyline name="Cross" points="24364.8,3555.32 24368.8,3551.32 " style="stroke-width:0.5;stroke:#80FF00;fill:none;stroke-linecap:round"/>
<polyline name="Cross" points="24368.8,3555.32 24364.8,3551.32 " style="stroke-width:0.5;stroke:#80FF00;fill:none;stroke-linecap:round"/>

<polyline name="Cross" points="24366.8,3555.32 24370.8,3551.32 " style="stroke-width:0.5;stroke:#0080FF;fill:none;stroke-linecap:round"/>
<polyline name="Cross" points="24370.8,3555.32 24366.8,3551.32 " style="stroke-width:0.5;stroke:#0080FF;fill:none;stroke-linecap:round"/>

<polyline name="Cross" points="24368.8,3555.32 24372.8,3551.32 " style="stroke-width:0.5;stroke:#80FF00;fill:none;stroke-linecap:round"/>
<polyline name="Cross" points="24372.8,3555.32 24368.8,3551.32 " style="stroke-width:0.5;stroke:#80FF00;fill:none;stroke-linecap:round"/>

<polyline name="Cross" points="24370.8,3555.32 24374.8,3551.32 " style="stroke-width:0.5;stroke:#0080FF;fill:none;stroke-linecap:round"/>
<polyline name="Cross" points="24374.8,3555.32 24370.8,3551.32 " style="stroke-width:0.5;stroke:#0080FF;fill:none;stroke-linecap:round"/>

<polyline name="Cross" points="24372.8,3555.32 24376.8,3551.32 " style="stroke-width:0.5;stroke:#80FF00;fill:none;stroke-linecap:round"/>
<polyline name="Cross" points="24376.8,3555.32 24372.8,3551.32 " style="stroke-width:0.5;stroke:#80FF00;fill:none;stroke-linecap:round"/>

<polyline name="Cross" points="24374.8,3555.32 24378.8,3551.32 " style="stroke-width:0.5;stroke:#0080FF;fill:none;stroke-linecap:round"/>
<polyline name="Cross" points="24378.8,3555.32 24374.8,3551.32 " style="stroke-width:0.5;stroke:#0080FF;fill:none;stroke-linecap:round"/>

<polyline name="Cross" points="24376.8,3555.32 24380.8,3551.32 " style="stroke-width:0.5;stroke:#80FF00;fill:none;stroke-linecap:round"/>
<polyline name="Cross" points="24380.8,3555.32 24376.8,3551.32 " style="stroke-width:0.5;stroke:#80FF00;fill:none;stroke-linecap:round"/>

<polyline name="Cross" points="24378.8,3555.32 24382.8,3551.32 " style="stroke-width:0.5;stroke:#0080FF;fill:none;stroke-linecap:round"/>
<polyline name="Cross" points="24382.8,3555.32 24378.8,3551.32 " style="stroke-width:0.5;stroke:#0080FF;fill:none;stroke-linecap:round"/>

<polyline name="Plus" points="10422.4,3773.18 10426.4,3773.18 " style="stroke-width:0.5;stroke:#0000FF;fill:none;stroke-linecap:round"/>
<polyline name="Plus" points="10424.4,3775.18 10424.4,3771.18 " style="stroke-width:0.5;stroke:#0000FF;fill:none;stroke-linecap:round"/>

<polyline name="Plus" points="10424.4,3773.18 10428.4,3773.18 " style="stroke-width:0.5;stroke:#00FF00;fill:none;stroke-linecap:round"/>
<polyline name="Plus" points="10426.4,3775.18 10426.4,3771.18 " style="stroke-width:0.5;stroke:#00FF00;fill:none;stroke-linecap:round"/>

<polyline name="Plus" points="10426.4,3773.18 10430.4,3773.18 " style="stroke-width:0.5;stroke:#0000FF;fill:none;stroke-linecap:round"/>
<polyline name="Plus" points="10428.4,3775.18 10428.4,3771.18 " style="stroke-width:0.5;stroke:#0000FF;fill:none;stroke-linecap:round"/>

<polyline name="Plus" points="10428.4,3773.18 10432.4,3773.18 " style="stroke-width:0.5;stroke:#00FF00;fill:none;stroke-linecap:round"/>
<polyline name="Plus" points="10430.4,3775.18 10430.4,3771.18 " style="stroke-width:0.5;stroke:#00FF00;fill:none;stroke-linecap:round"/>

<polyline name="Plus" points="10430.4,3773.18 10434.4,3773.18 " style="stroke-width:0.5;stroke:#0000FF;fill:none;stroke-linecap:round"/>
<polyline name="Plus" points="10432.4,3775.18 10432.4,3771.18 " style="stroke-width:0.5;stroke:#0000FF;fill:none;stroke-linecap:round"/>

<polyline name="Plus" points="10432.4,3773.18 10436.4,3773.18 " style="stroke-width:0.5;stroke:#00FF00;fill:none;stroke-linecap:round"/>
<polyline name="Plus" points="10434.4,3775.18 10434.4,3771.18 " style="stroke-width:0.5;stroke:#00FF00;fill:none;stroke-linecap:round"/>

<polyline name="Plus" points="10434.4,3773.18 10438.4,3773.18 " style="stroke-width:0.5;stroke:#0000FF;fill:none;stroke-linecap:round"/>
<polyline name="Plus" points="10436.4,3775.18 10436.4,3771.18 " style="stroke-width:0.5;stroke:#0000FF;fill:none;stroke-linecap:round"/> -->

<!-- <polygon name="OpenUpTriangle" points="20550.9,3597.45 20546.9,3597.45 20548.9,3593.45 " style="stroke-width:0.5;stroke:#0080FF;fill:none;stroke-linecap:round"/>

<polygon name="OpenUpTriangle" points="20552.9,3597.45 20548.9,3597.45 20550.9,3593.45 " style="stroke-width:0.5;stroke:#00FF00;fill:none;stroke-linecap:round"/>

<polygon name="OpenUpTriangle" points="20554.9,3597.45 20550.9,3597.45 20552.9,3593.45 " style="stroke-width:0.5;stroke:#0080FF;fill:none;stroke-linecap:round"/>

<polygon name="OpenUpTriangle" points="20556.9,3597.45 20552.9,3597.45 20554.9,3593.45 " style="stroke-width:0.5;stroke:#00FF00;fill:none;stroke-linecap:round"/>

<polygon name="OpenUpTriangle" points="20558.9,3597.45 20554.9,3597.45 20556.9,3593.45 " style="stroke-width:0.5;stroke:#0080FF;fill:none;stroke-linecap:round"/>

<polygon name="OpenUpTriangle" points="20560.9,3597.45 20556.9,3597.45 20558.9,3593.45 " style="stroke-width:0.5;stroke:#00FF00;fill:none;stroke-linecap:round"/>

<polygon name="OpenUpTriangle" points="20562.9,3597.45 20558.9,3597.45 20560.9,3593.45 " style="stroke-width:0.5;stroke:#0080FF;fill:none;stroke-linecap:round"/>

<polygon name="OpenUpTriangle" points="20548.9,3597.45 20544.9,3597.45 20546.9,3593.45 " style="stroke-width:0.5;stroke:#00FF00;fill:none;stroke-linecap:round"/>

<polygon name="OpenDownTriangle" points="20549.9,3131.3 20545.9,3131.3 20547.9,3135.3 " style="stroke-width:0.5;stroke:#0080FF;fill:none;stroke-linecap:round"/>

<polygon name="OpenDownTriangle" points="20550.9,3131.3 20546.9,3131.3 20548.9,3135.3 " style="stroke-width:0.5;stroke:#00FF00;fill:none;stroke-linecap:round"/>

<polygon name="OpenDownTriangle" points="20551.9,3131.3 20547.9,3131.3 20549.9,3135.3 " style="stroke-width:0.5;stroke:#0080FF;fill:none;stroke-linecap:round"/>

<polygon name="OpenDownTriangle" points="20552.9,3131.3 20548.9,3131.3 20550.9,3135.3 " style="stroke-width:0.5;stroke:#00FF00;fill:none;stroke-linecap:round"/>

<polygon name="OpenDownTriangle" points="20553.9,3131.3 20549.9,3131.3 20551.9,3135.3 " style="stroke-width:0.5;stroke:#0080FF;fill:none;stroke-linecap:round"/>

<polygon name="OpenDownTriangle" points="20554.9,3131.3 20550.9,3131.3 20552.9,3135.3 " style="stroke-width:0.5;stroke:#00FF00;fill:none;stroke-linecap:round"/>

<polygon name="OpenDownTriangle" points="20555.9,3131.3 20551.9,3131.3 20553.9,3135.3 " style="stroke-width:0.5;stroke:#0080FF;fill:none;stroke-linecap:round"/>

<polygon name="OpenDownTriangle" points="20556.9,3131.3 20552.9,3131.3 20554.9,3135.3 " style="stroke-width:0.5;stroke:#00FF00;fill:none;stroke-linecap:round"/>

<polygon name="OpenDownTriangle" points="20557.9,3131.3 20553.9,3131.3 20555.9,3135.3 " style="stroke-width:0.5;stroke:#0080FF;fill:none;stroke-linecap:round"/>

<polygon name="OpenDownTriangle" points="20558.9,3131.3 20554.9,3131.3 20556.9,3135.3 " style="stroke-width:0.5;stroke:#00FF00;fill:none;stroke-linecap:round"/>

<polygon name="OpenDownTriangle" points="20559.9,3131.3 20555.9,3131.3 20557.9,3135.3 " style="stroke-width:0.5;stroke:#0080FF;fill:none;stroke-linecap:round"/> -->

<!-- <circle cx="14254.5" cy="2125.4" r="2" stroke="#0080FF" stroke-width="1" fill="none"/>
<circle cx="14254.5" cy="2125.4" r="1" stroke="#0080FF" stroke-width="0.5" fill="#0080FF"/>

<circle cx="14256.5" cy="2125.4" r="2" stroke="#00FF00" stroke-width="1" fill="none"/>
<circle cx="14256.5" cy="2125.4" r="1" stroke="#00FF00" stroke-width="0.5" fill="#00FF00"/>

<circle cx="14258.5" cy="2125.4" r="2" stroke="#0080FF" stroke-width="1" fill="none"/>
<circle cx="14258.5" cy="2125.4" r="1" stroke="#0080FF" stroke-width="0.5" fill="#0080FF"/>

<circle cx="14260.5" cy="2125.4" r="2" stroke="#00FF00" stroke-width="1" fill="none"/>
<circle cx="14260.5" cy="2125.4" r="1" stroke="#00FF00" stroke-width="0.5" fill="#00FF00"/>

<circle cx="14252.5" cy="2125.4" r="2" stroke="#00FF00" stroke-width="1" fill="none"/>
<circle cx="14252.5" cy="2125.4" r="1" stroke="#00FF00" stroke-width="0.5" fill="#00FF00"/>

<circle cx="14250.5" cy="2125.4" r="2" stroke="#0080FF" stroke-width="1" fill="none"/>
<circle cx="14250.5" cy="2125.4" r="1" stroke="#0080FF" stroke-width="0.5" fill="#0080FF"/> -->

<!-- <polyline name="CellBody" points="22215.1,1558.89 22212.5,1553.18 22212.7,1545.72 22214.1,1543.08 22215.4,1542.21 22216.7,1542.43 22217.6,1543.08 22220.8,1547.69 22223.5,1549.01 22230.1,1549.45 22233.6,1549.01 22239.5,1546.6 22244.3,1541.99 22245.9,1539.13 22246.3,1534.08 22246.1,1527.94 22243.2,1517.84 22240.2,1512.35 22235.8,1506.64 22233.1,1504.67 22228.1,1503.13 22223.1,1502.47 22220.8,1502.91 22217.1,1505.99 22213.8,1507.52 22208.8,1508.4 22202.2,1508.84 22198.5,1509.94 22193.4,1513.23 22189,1518.72 22187,1523.55 22186.4,1529.04 22186.4,1542.86 22185.7,1550.11 22186.6,1555.16 22187.7,1558.67 22196.9,1573.82 22197.6,1574.7 22200.2,1579.31 22202.6,1581.94 22207.9,1582.38 22209.9,1581.94 22213.2,1580.18 22215.1,1578.21 22217.8,1573.38 22218.7,1567.67 22218,1564.38 22217.6,1563.5 22216.9,1562.62 22216.9,1561.96 22216,1560.87 22216,1560.65 " style="stroke-width:0;stroke:#8080FF;fill:#8080FF;stroke-linecap:round"/> -->
<polyline name="EHDAA2:0027681,comma-shaped body" points="22215.1,1558.89 22212.5,1553.18 22212.7,1545.72 22214.1,1543.08 22215.4,1542.21 22216.7,1542.43 22217.6,1543.08 22220.8,1547.69 22223.5,1549.01 22230.1,1549.45 22233.6,1549.01 22239.5,1546.6 22244.3,1541.99 22245.9,1539.13 22246.3,1534.08 22246.1,1527.94 22243.2,1517.84 22240.2,1512.35 22235.8,1506.64 22233.1,1504.67 22228.1,1503.13 22223.1,1502.47 22220.8,1502.91 22217.1,1505.99 22213.8,1507.52 22208.8,1508.4 22202.2,1508.84 22198.5,1509.94 22193.4,1513.23 22189,1518.72 22187,1523.55 22186.4,1529.04 22186.4,1542.86 22185.7,1550.11 22186.6,1555.16 22187.7,1558.67 22196.9,1573.82 22197.6,1574.7 22200.2,1579.31 22202.6,1581.94 22207.9,1582.38 22209.9,1581.94 22213.2,1580.18 22215.1,1578.21 22217.8,1573.38 22218.7,1567.67 22218,1564.38 22217.6,1563.5 22216.9,1562.62 22216.9,1561.96 22216,1560.87 22216,1560.65 22215.1,1558.89 " style="stroke-width:1px;stroke:#8080FF;fill:none;stroke-linecap:round;vector-effect:non-scaling-stroke"/>
</g>
</svg>
